<svg width="34" height="34" viewBox="0 0 34 34" fill="none" xmlns="http://www.w3.org/2000/svg">
<path d="M24.6502 9.63337L13.6668 20.6167L7.6835 14.65L5.3335 17L13.6668 25.3334L27.0002 12L24.6502 9.63337ZM17.0002 0.333374C7.80016 0.333374 0.333496 7.80004 0.333496 17C0.333496 26.2 7.80016 33.6667 17.0002 33.6667C26.2002 33.6667 33.6668 26.2 33.6668 17C33.6668 7.80004 26.2002 0.333374 17.0002 0.333374ZM17.0002 30.3334C9.6335 30.3334 3.66683 24.3667 3.66683 17C3.66683 9.63337 9.6335 3.66671 17.0002 3.66671C24.3668 3.66671 30.3335 9.63337 30.3335 17C30.3335 24.3667 24.3668 30.3334 17.0002 30.3334Z" fill="#74B5BE"/>
</svg>
