<svg width="30" height="30" viewBox="0 0 30 30" fill="none" xmlns="http://www.w3.org/2000/svg">
<path d="M14.9999 0.333344C16.9448 0.333344 18.8101 1.10596 20.1854 2.48123C21.5606 3.85649 22.3333 5.72176 22.3333 7.66668C22.3333 9.6116 21.5606 11.4769 20.1854 12.8521C18.8101 14.2274 16.9448 15 14.9999 15C13.055 15 11.1897 14.2274 9.81447 12.8521C8.4392 11.4769 7.66659 9.6116 7.66659 7.66668C7.66659 5.72176 8.4392 3.85649 9.81447 2.48123C11.1897 1.10596 13.055 0.333344 14.9999 0.333344ZM14.9999 18.6667C23.1033 18.6667 29.6666 21.9483 29.6666 26V29.6667H0.333252V26C0.333252 21.9483 6.89659 18.6667 14.9999 18.6667Z" fill="white"/>
</svg>
