<svg width="37" height="30" viewBox="0 0 37 30" fill="none" xmlns="http://www.w3.org/2000/svg">
<path d="M31.1667 0H5.5C4.04131 0 2.64236 0.579463 1.61091 1.61091C0.579463 2.64236 0 4.04131 0 5.5V23.8333C0 25.292 0.579463 26.691 1.61091 27.7224C2.64236 28.7539 4.04131 29.3333 5.5 29.3333H31.1667C32.6254 29.3333 34.0243 28.7539 35.0558 27.7224C36.0872 26.691 36.6667 25.292 36.6667 23.8333V5.5C36.6667 4.04131 36.0872 2.64236 35.0558 1.61091C34.0243 0.579463 32.6254 0 31.1667 0V0ZM31.1667 3.66667L19.25 11.8617C18.9713 12.0226 18.6552 12.1073 18.3333 12.1073C18.0115 12.1073 17.6954 12.0226 17.4167 11.8617L5.5 3.66667H31.1667Z" fill="white" fill-opacity="0.6"/>
</svg>
