<svg width="38" height="30" viewBox="0 0 38 30" fill="none" xmlns="http://www.w3.org/2000/svg">
<path d="M31.8334 0.333328H6.16675C4.70806 0.333328 3.30911 0.912791 2.27766 1.94424C1.24621 2.97569 0.666748 4.37464 0.666748 5.83333V24.1667C0.666748 25.6253 1.24621 27.0243 2.27766 28.0557C3.30911 29.0872 4.70806 29.6667 6.16675 29.6667H31.8334C33.2921 29.6667 34.6911 29.0872 35.7225 28.0557C36.754 27.0243 37.3334 25.6253 37.3334 24.1667V5.83333C37.3334 4.37464 36.754 2.97569 35.7225 1.94424C34.6911 0.912791 33.2921 0.333328 31.8334 0.333328ZM31.8334 3.99999L19.9168 12.195C19.638 12.3559 19.3219 12.4406 19.0001 12.4406C18.6783 12.4406 18.3621 12.3559 18.0834 12.195L6.16675 3.99999H31.8334Z" fill="white"/>
</svg>
