<svg width="35" height="35" viewBox="0 0 35 35" fill="none" xmlns="http://www.w3.org/2000/svg">
<path d="M17.7656 3C14.8453 3 11.9905 3.86599 9.56229 5.48846C7.1341 7.11092 5.24155 9.417 4.12397 12.1151C3.0064 14.8131 2.71399 17.782 3.28372 20.6463C3.85346 23.5105 5.25975 26.1415 7.32476 28.2065C9.38977 30.2715 12.0208 31.6778 14.885 32.2475C17.7493 32.8173 20.7181 32.5249 23.4162 31.4073C26.1143 30.2897 28.4203 28.3972 30.0428 25.969C31.6653 23.5408 32.5313 20.686 32.5313 17.7656C32.5276 13.8506 30.9708 10.0971 28.2025 7.32875C25.4342 4.56044 21.6806 3.00362 17.7656 3ZM17.7656 29.25C15.4942 29.25 13.2739 28.5765 11.3853 27.3145C9.49666 26.0526 8.02468 24.259 7.15545 22.1605C6.28623 20.062 6.0588 17.7529 6.50193 15.5251C6.94505 13.2974 8.03883 11.2511 9.64495 9.64495C11.2511 8.03883 13.2974 6.94505 15.5251 6.50192C17.7529 6.05879 20.062 6.28622 22.1605 7.15545C24.259 8.02467 26.0526 9.49665 27.3145 11.3852C28.5765 13.2738 29.25 15.4942 29.25 17.7656C29.2464 20.8104 28.0353 23.7294 25.8823 25.8823C23.7294 28.0353 20.8104 29.2464 17.7656 29.25ZM23.3027 14.5527L20.0899 17.7656L23.3027 20.9785C23.4557 21.1309 23.5771 21.312 23.6599 21.5115C23.7427 21.7109 23.7853 21.9247 23.7853 22.1406C23.7853 22.3566 23.7427 22.5704 23.6599 22.7698C23.5771 22.9692 23.4557 23.1503 23.3027 23.3027C22.9931 23.6083 22.5756 23.7797 22.1406 23.7797C21.7056 23.7797 21.2881 23.6083 20.9785 23.3027L17.7656 20.0898L14.5527 23.3027C14.2431 23.6083 13.8256 23.7797 13.3906 23.7797C12.9556 23.7797 12.5381 23.6083 12.2285 23.3027C12.0756 23.1503 11.9542 22.9692 11.8714 22.7698C11.7886 22.5704 11.746 22.3566 11.746 22.1406C11.746 21.9247 11.7886 21.7109 11.8714 21.5115C11.9542 21.312 12.0756 21.1309 12.2285 20.9785L15.4414 17.7656L12.2285 14.5527C11.9203 14.2445 11.7472 13.8265 11.7472 13.3906C11.7472 12.9548 11.9203 12.5367 12.2285 12.2285C12.5367 11.9203 12.9548 11.7472 13.3906 11.7472C13.8265 11.7472 14.2445 11.9203 14.5527 12.2285L17.7656 15.4414L20.9785 12.2285C21.2867 11.9203 21.7048 11.7472 22.1406 11.7472C22.5765 11.7472 22.9945 11.9203 23.3027 12.2285C23.611 12.5367 23.7841 12.9548 23.7841 13.3906C23.7841 13.8265 23.611 14.2445 23.3027 14.5527Z" fill="#FF3737"/>
</svg>
