<svg width="44" height="44" viewBox="0 0 44 44" fill="none" xmlns="http://www.w3.org/2000/svg">
<path d="M7.62288 31.8317C7.37294 31.5967 7.03398 31.4647 6.68056 31.4647C6.32714 31.4647 5.98819 31.5967 5.73825 31.8317L4.01489 33.4525L2.29153 31.8317C2.16858 31.712 2.02151 31.6165 1.8589 31.5508C1.69629 31.4851 1.52139 31.4505 1.34442 31.449C1.16744 31.4476 0.991938 31.4793 0.828137 31.5423C0.664336 31.6054 0.515522 31.6984 0.390379 31.8161C0.265235 31.9338 0.166268 32.0738 0.0992515 32.2279C0.0322352 32.3819 -0.00148753 32.547 5.0324e-05 32.7134C0.00158817 32.8799 0.0383562 33.0444 0.108209 33.1973C0.178062 33.3503 0.2796 33.4886 0.4069 33.6042L2.13026 35.2251L0.4069 36.8459C0.2796 36.9616 0.178062 37.0999 0.108209 37.2528C0.0383562 37.4058 0.00158817 37.5703 5.0324e-05 37.7367C-0.00148753 37.9031 0.0322352 38.0682 0.0992515 38.2223C0.166268 38.3763 0.265235 38.5163 0.390379 38.634C0.515522 38.7517 0.664336 38.8448 0.828137 38.9078C0.991938 38.9708 1.16744 39.0026 1.34442 39.0011C1.52139 38.9997 1.69629 38.9651 1.8589 38.8994C2.02151 38.8337 2.16858 38.7382 2.29153 38.6185L4.01489 36.9976L5.73825 38.6185C5.98962 38.8468 6.3263 38.9732 6.67577 38.9703C7.02523 38.9675 7.35952 38.8356 7.60664 38.6032C7.85376 38.3708 7.99393 38.0564 7.99697 37.7277C8.00001 37.399 7.86567 37.0823 7.62288 36.8459L5.89952 35.2251L7.62288 33.6042C7.87275 33.3691 8.01312 33.0503 8.01312 32.7179C8.01312 32.3855 7.87275 32.0668 7.62288 31.8317ZM19.6184 31.8317C19.3685 31.5967 19.0295 31.4647 18.6761 31.4647C18.3227 31.4647 17.9837 31.5967 17.7338 31.8317L16.0104 33.4525L14.2871 31.8317C14.0357 31.6033 13.699 31.477 13.3495 31.4798C13.0001 31.4827 12.6658 31.6145 12.4187 31.8469C12.1715 32.0794 12.0314 32.3938 12.0283 32.7225C12.0253 33.0511 12.1596 33.3678 12.4024 33.6042L14.1258 35.2251L12.4024 36.8459C12.2751 36.9616 12.1736 37.0999 12.1037 37.2528C12.0339 37.4058 11.9971 37.5703 11.9956 37.7367C11.994 37.9031 12.0278 38.0682 12.0948 38.2223C12.1618 38.3763 12.2608 38.5163 12.3859 38.634C12.5111 38.7517 12.6599 38.8448 12.8237 38.9078C12.9875 38.9708 13.163 39.0026 13.34 39.0011C13.5169 38.9997 13.6918 38.9651 13.8544 38.8994C14.017 38.8337 14.1641 38.7382 14.2871 38.6185L16.0104 36.9976L17.7338 38.6185C17.9852 38.8468 18.3218 38.9732 18.6713 38.9703C19.0208 38.9675 19.3551 38.8356 19.6022 38.6032C19.8493 38.3708 19.9895 38.0564 19.9925 37.7277C19.9955 37.399 19.8612 37.0823 19.6184 36.8459L17.8951 35.2251L19.6184 33.6042C19.8683 33.3691 20.0086 33.0503 20.0086 32.7179C20.0086 32.3855 19.8683 32.0668 19.6184 31.8317ZM31.6139 31.8317C31.364 31.5967 31.0251 31.4647 30.6716 31.4647C30.3182 31.4647 29.9793 31.5967 29.7293 31.8317L28.006 33.4525L26.2826 31.8317C26.0312 31.6033 25.6945 31.477 25.3451 31.4798C24.9956 31.4827 24.6613 31.6145 24.4142 31.8469C24.1671 32.0794 24.0269 32.3938 24.0239 32.7225C24.0208 33.0511 24.1552 33.3678 24.398 33.6042L26.1213 35.2251L24.398 36.8459C24.2707 36.9616 24.1691 37.0999 24.0993 37.2528C24.0294 37.4058 23.9927 37.5703 23.9911 37.7367C23.9896 37.9031 24.0233 38.0682 24.0903 38.2223C24.1573 38.3763 24.2563 38.5163 24.3814 38.634C24.5066 38.7517 24.6554 38.8448 24.8192 38.9078C24.983 38.9708 25.1585 39.0026 25.3355 39.0011C25.5125 38.9997 25.6874 38.9651 25.85 38.8994C26.0126 38.8337 26.1597 38.7382 26.2826 38.6185L28.006 36.9976L29.7293 38.6185C29.9807 38.8468 30.3174 38.9732 30.6668 38.9703C31.0163 38.9675 31.3506 38.8356 31.5977 38.6032C31.8448 38.3708 31.985 38.0564 31.988 37.7277C31.9911 37.399 31.8567 37.0823 31.6139 36.8459L29.8906 35.2251L31.6139 33.6042C31.8638 33.3691 32.0042 33.0503 32.0042 32.7179C32.0042 32.3855 31.8638 32.0668 31.6139 31.8317ZM41.8861 35.2251L43.6095 33.6042C43.8523 33.3678 43.9866 33.0511 43.9836 32.7225C43.9805 32.3938 43.8404 32.0794 43.5932 31.8469C43.3461 31.6145 43.0118 31.4827 42.6624 31.4798C42.3129 31.477 41.9762 31.6033 41.7248 31.8317L40.0015 33.4525L38.2781 31.8317C38.0268 31.6033 37.6901 31.477 37.3406 31.4798C36.9911 31.4827 36.6569 31.6145 36.4097 31.8469C36.1626 32.0794 36.0224 32.3938 36.0194 32.7225C36.0164 33.0511 36.1507 33.3678 36.3935 33.6042L38.1169 35.2251L36.3935 36.8459C36.2662 36.9616 36.1647 37.0999 36.0948 37.2528C36.025 37.4058 35.9882 37.5703 35.9867 37.7367C35.9851 37.9031 36.0188 38.0682 36.0859 38.2223C36.1529 38.3763 36.2518 38.5163 36.377 38.634C36.5021 38.7517 36.6509 38.8448 36.8147 38.9078C36.9785 38.9708 37.1541 39.0026 37.331 39.0011C37.508 38.9997 37.6829 38.9651 37.8455 38.8994C38.0081 38.8337 38.1552 38.7382 38.2781 38.6185L40.0015 36.9976L41.7248 38.6185C41.9762 38.8468 42.3129 38.9732 42.6624 38.9703C43.0118 38.9675 43.3461 38.8356 43.5932 38.6032C43.8404 38.3708 43.9805 38.0564 43.9836 37.7277C43.9866 37.399 43.8523 37.0823 43.6095 36.8459L41.8861 35.2251ZM6.68056 41.4929H1.34922C0.995725 41.4929 0.656713 41.6249 0.406757 41.86C0.156802 42.0951 0.0163781 42.414 0.0163781 42.7464C0.0163781 43.0789 0.156802 43.3978 0.406757 43.6328C0.656713 43.8679 0.995725 44 1.34922 44H6.68056C7.03405 44 7.37307 43.8679 7.62302 43.6328C7.87298 43.3978 8.0134 43.0789 8.0134 42.7464C8.0134 42.414 7.87298 42.0951 7.62302 41.86C7.37307 41.6249 7.03405 41.4929 6.68056 41.4929ZM18.6761 41.4929H13.3447C12.9913 41.4929 12.6522 41.6249 12.4023 41.86C12.1523 42.0951 12.0119 42.414 12.0119 42.7464C12.0119 43.0789 12.1523 43.3978 12.4023 43.6328C12.6522 43.8679 12.9913 44 13.3447 44H18.6761C19.0296 44 19.3686 43.8679 19.6186 43.6328C19.8685 43.3978 20.0089 43.0789 20.0089 42.7464C20.0089 42.414 19.8685 42.0951 19.6186 41.86C19.3686 41.6249 19.0296 41.4929 18.6761 41.4929ZM30.6716 41.4929H25.3403C24.9868 41.4929 24.6478 41.6249 24.3978 41.86C24.1479 42.0951 24.0074 42.414 24.0074 42.7464C24.0074 43.0789 24.1479 43.3978 24.3978 43.6328C24.6478 43.8679 24.9868 44 25.3403 44H30.6716C31.0251 44 31.3641 43.8679 31.6141 43.6328C31.864 43.3978 32.0045 43.0789 32.0045 42.7464C32.0045 42.414 31.864 42.0951 31.6141 41.86C31.3641 41.6249 31.0251 41.4929 30.6716 41.4929ZM42.6672 41.4929H37.3358C36.9823 41.4929 36.6433 41.6249 36.3934 41.86C36.1434 42.0951 36.003 42.414 36.003 42.7464C36.003 43.0789 36.1434 43.3978 36.3934 43.6328C36.6433 43.8679 36.9823 44 37.3358 44H42.6672C43.0207 44 43.3597 43.8679 43.6096 43.6328C43.8596 43.3978 44 43.0789 44 42.7464C44 42.414 43.8596 42.0951 43.6096 41.86C43.3597 41.6249 43.0207 41.4929 42.6672 41.4929ZM33.4039 10.906H30.9382V8.39886C30.9382 6.17134 29.9974 4.03506 28.3227 2.45997C26.648 0.884878 24.3766 0 22.0082 0C19.6398 0 17.3684 0.884878 15.6937 2.45997C14.019 4.03506 13.0782 6.17134 13.0782 8.39886V10.906H10.6124C10.4369 10.9043 10.2628 10.9356 10.1003 10.998C9.93777 11.0604 9.79012 11.1527 9.666 11.2694C9.54188 11.3861 9.44377 11.525 9.37742 11.6779C9.31107 11.8307 9.27781 11.9945 9.2796 12.1595V23.943C9.2803 24.9402 9.7018 25.8964 10.4515 26.6015C11.2012 27.3066 12.2179 27.703 13.2781 27.7037H30.7383C31.7985 27.703 32.8152 27.3066 33.5649 26.6015C34.3146 25.8964 34.7361 24.9402 34.7368 23.943V12.1595C34.7386 11.9945 34.7053 11.8307 34.639 11.6779C34.5726 11.525 34.4745 11.3861 34.3504 11.2694C34.2263 11.1527 34.0786 11.0604 33.9161 10.998C33.7536 10.9356 33.5795 10.9043 33.4039 10.906ZM15.7439 8.39886C15.7439 6.83627 16.4038 5.33769 17.5786 4.23277C18.7534 3.12786 20.3468 2.50712 22.0082 2.50712C23.6696 2.50712 25.263 3.12786 26.4377 4.23277C27.6125 5.33769 28.2725 6.83627 28.2725 8.39886V10.906H15.7439V8.39886Z" fill="white"/>
</svg>
